<svg xmlns="http://www.w3.org/2000/svg" width="200" height="150" viewBox="0 0 200 150">
  <rect width="200" height="150" fill="#9b59b6" rx="8"/>
  <path d="M60 60 Q60 30 100 30 Q140 30 140 60 L140 90 Q140 110 120 110 L120 95 Q130 95 130 85 L130 60 Q130 45 100 45 Q70 45 70 60 L70 85 Q70 95 80 95 L80 110 Q60 110 60 90 Z" fill="#fff" opacity="0.85"/>
  <rect x="115" y="70" width="20" height="35" fill="#fff" rx="10" opacity="0.85"/>
  <rect x="65" y="70" width="20" height="35" fill="#fff" rx="10" opacity="0.85"/>
  <text x="100" y="135" font-family="system-ui,sans-serif" font-size="11" fill="#fff" text-anchor="middle" opacity="0.9">Tai nghe Bluetooth</text>
</svg>
